<svg width="20" height="23" viewBox="0 0 20 23" fill="none" xmlns="http://www.w3.org/2000/svg">
<path d="M1.25 22.2222C0.918479 22.2222 0.600537 22.1052 0.366117 21.8968C0.131696 21.6884 0 21.4058 0 21.1111V1.11111C0 0.816426 0.131696 0.533811 0.366117 0.325437C0.600537 0.117063 0.918479 0 1.25 0H18.75C19.0815 0 19.3995 0.117063 19.6339 0.325437C19.8683 0.533811 20 0.816426 20 1.11111V21.1111C20 21.4058 19.8683 21.6884 19.6339 21.8968C19.3995 22.1052 19.0815 22.2222 18.75 22.2222H1.25ZM13.75 15.5556L20 11.1111L13.75 6.66667V10H6.25V12.2222H13.75V15.5556Z" fill="#383838"/>
</svg>
